# xmcd CD database file
#
# Track frame offsets:
#	150
#	14865
#	34487
#	53601
#	69232
#	91474
#	109916
#	131778
#	148882
#	168860
#	188664
#	204100
#	219034
#
# Disc length: 3164 seconds
#
# Revision: 0
# Processed by: cddbd v1.5.2PL0 Copyright (c) Steve Scherf et al.
# Submitted via: CDex 1.51
#
DISCID=b80c5a0d
DTITLE=Montgomery Gentry - Something To Be Proud Of: The Best Of 1999-2005
DYEAR=1900
DGENRE=Country
TTITLE0=She Don't Tell Me To
TTITLE1=Something To Be Proud Of
TTITLE2=Gone
TTITLE3=If You Ever Stop Loving Me
TTITLE4=Hell Yeah
TTITLE5=Speed
TTITLE6=My Town
TTITLE7=Didn't I
TTITLE8=She Couldn't Change Me
TTITLE9=Daddy Won't Sell the Farm
TTITLE10=Lonely and Gone
TTITLE11=Hillbilly Shoes
TTITLE12=Merry Christmas from the Family
EXTD=
EXTT0=
EXTT1=
EXTT2=
EXTT3=
EXTT4=
EXTT5=
EXTT6=
EXTT7=
EXTT8=
EXTT9=
EXTT10=
EXTT11=
EXTT12=
PLAYORDER=
